PathFileType	4	(X/Y/Z)	path1_06_0-578.trc
DataRate	CameraRate	NumFrames	NumMarkers	Units	OrigDataRate	OrigDataStartFrame	OrigNumFrames
30	30	8	22	m	30	289	578
Frame#	Time	Hip			RHip			RKnee			RAnkle			RBigToe			RSmallToe			RHeel			LHip			LKnee			LAnkle			LBigToe			LSmallToe			LHeel			Neck			Head			Nose			RShoulder			RElbow			RWrist			LShoulder			LElbow			LWrist		
		X1	Y1	Z1	X2	Y2	Z2	X3	Y3	Z3	X4	Y4	Z4	X5	Y5	Z5	X6	Y6	Z6	X7	Y7	Z7	X8	Y8	Z8	X9	Y9	Z9	X10	Y10	Z10	X11	Y11	Z11	X12	Y12	Z12	X13	Y13	Z13	X14	Y14	Z14	X15	Y15	Z15	X16	Y16	Z16	X17	Y17	Z17	X18	Y18	Z18	X19	Y19	Z19	X20	Y20	Z20	X21	Y21	Z21	X22	Y22	Z22
290	9.666666666666666	2.604872148368598	0.832952913822523	0.7518804811338772	2.6093515980438178	0.7945820486438447	0.6741230360200567	2.5791543804936237	0.47076046874062294	0.6548518756724123	2.6317713266017635	0.1087993278475589	0.6612849444302554	2.4543034546446343	0.027254623095722307	0.6395565635198269	2.4973909769847875	0.023090439667947858	0.5861908964100189	2.698648402568183	0.02258806439480482	0.6778104896604173	2.5989654384147776	0.7933704632725268	0.8352753480787439	2.606919704636184	0.4316386332046356	0.8528948273692678	2.6437407695022084	0.09576205597376627	0.8337033469571766	2.480680348203855	0.015066932882626371	0.8699277015839687	2.520550962268677	0.01826642939618562	0.9166035916774454	2.692483980203172	0.027893823106214695	0.8292334840928252	2.560343626139632	1.4686550399422604	0.7649923612364059	2.5307117325061457	1.7103798853525711	0.7198596717119884	2.4263195211134416	1.60852059162315	0.7443639498628443	2.6106107604745943	1.3677653300446821	0.5944039374025982	2.6028148398880084	1.0767689647490852	0.5404731350429736	2.5760881914090787	0.8439437098940588	0.5417186686796294	2.558438837486949	1.3416883612533403	0.934382771779672	2.618369777411948	1.0655651922570182	0.9584284861667677	2.60335411883304	0.8366088731368166	0.9611589395971185
291	9.7	2.604901089712137	0.8328794856271574	0.7515934723960208	2.6089216291942217	0.7949607493939678	0.6732708906033632	2.5789988851073486	0.47094586938369876	0.6542711818633844	2.631715871984922	0.1087188780141202	0.6613086915613464	2.453939698270042	0.02715028170770269	0.639552142212486	2.496807100910205	0.02299542413754259	0.5862602039383178	2.6989732169431933	0.022083898184878797	0.6778371286199408	2.5992434539197915	0.7934117896392151	0.8348285013111139	2.6074837134830835	0.4313905662974995	0.852296996580741	2.6430932114703123	0.09643055471225541	0.8330245516654978	2.4804642705549655	0.01509387226561953	0.8707165928988919	2.520897881898041	0.01821516542433511	0.9166795934810692	2.6930577405915153	0.027789265872884435	0.8294901703748508	2.5603137295986107	1.4686466692383728	0.7650243361717792	2.531238267851997	1.7105400904676635	0.7221911976382713	2.426564496759101	1.6087501869342542	0.7447040792064528	2.610517256846914	1.367878227542886	0.5948064621823417	2.6022719910174623	1.0768997649474308	0.5407897742255876	2.5758459147801385	0.844292553623374	0.5416333591736753	2.556917232106274	1.3418015264696876	0.935132153575942	2.6184982711275784	1.0654466247911225	0.9583377340836828	2.603289433209227	0.8366385050039385	0.9612282105427443
292	9.733333333333333	2.605106947395929	0.8329690892446225	0.7513713450938895	2.6085976573540433	0.7958390015793695	0.6726496737506089	2.578780209018922	0.4711439238839619	0.6536852764096367	2.6321538216457663	0.10842949289330955	0.6613489845922007	2.4537281494224703	0.02710424160506727	0.6396771908385409	2.4965913647089546	0.0229018693328474	0.5863902430132529	2.69945558802552	0.021688675093549232	0.6779411239885466	2.599391099099214	0.7943091185590735	0.8346544824207023	2.6077264457919385	0.43202533029306006	0.8513744671322403	2.6430568924474067	0.09711640761440436	0.8338138431513872	2.480376518268882	0.014447612906779327	0.8707802832851513	2.5206378908604408	0.018440603382406277	0.9168503151964125	2.6946029290270372	0.027607519593058582	0.8305528295888243	2.560574323569538	1.4684176302507277	0.7651131685904761	2.5308599156842675	1.7121629740593824	0.7202979694503943	2.426663755563894	1.6085893775617206	0.7435145502993175	2.6103785060073865	1.3677136544124495	0.5948373686200725	2.601936067587163	1.0768593490514855	0.5411114359474781	2.575683596204911	0.8448229894265887	0.5414256146935537	2.5562515685344955	1.3420274252467776	0.9354790496334535	2.618652840104318	1.0654002776207776	0.9581831160429987	2.6032774674054027	0.8368150423986528	0.9613395149604947
293	9.766666666666667	2.605290395447933	0.8332232494756154	0.7511610711786987	2.60813098779031	0.7972450601469117	0.6720815605217022	2.5786830428061225	0.47125222185113586	0.6533439225558544	2.63288322488909	0.10802903956829982	0.6614059059380366	2.453719465983531	0.027107637839891483	0.6398439529378799	2.4967064698382617	0.022795304803480715	0.5865475572577994	2.699917865406707	0.021525367445160846	0.6783050532841209	2.599306105589883	0.7959181649573757	0.8345555144836643	2.6076006627593356	0.4333508661344504	0.8493266703440541	2.6440467772881746	0.09723788610434096	0.8359198737641563	2.480475509818767	0.013121869104625922	0.8700241775666194	2.5195042008159523	0.018973961788819778	0.9169324128819483	2.6970104399606143	0.027177970495867666	0.8324474595610073	2.561036807135672	1.4680456986876278	0.765232398431482	2.529790104408445	1.7144982495130563	0.7162514901650957	2.4268073640912933	1.608086954271161	0.7412249407251864	2.6101490600825716	1.3673098732374673	0.5944303123383387	2.601816237764562	1.0766388350930272	0.5414148114648232	2.5755237860845455	0.8453627334053594	0.5411827686783558	2.5564918998808475	1.342295315327928	0.9353023105452046	2.6187465567246964	1.065435626572131	0.9580095749135433	2.603287434100583	0.8370310921725568	0.9614506536827857
294	9.8	2.605378988854268	0.8335798992341257	0.7509648893185386	2.607470559906801	0.7990931788070621	0.6713548489090126	2.5789810349393614	0.47118200872442995	0.6535996215324154	2.6335848986997696	0.10763979242357044	0.6614911544655465	2.4539305226192414	0.027138978546104267	0.6399862509039022	2.497060479891663	0.02266602517281077	0.5866593637784266	2.7003164208500867	0.021626404366039922	0.6789635706172594	2.5989506565771427	0.797946708670901	0.8342998206010128	2.607093399187966	0.43515338227036554	0.8462180100873867	2.645693851145001	0.096809109458647	0.8387716485233031	2.4808046958176995	0.01122884617345226	0.868516105106326	2.517555087284661	0.019779207936449876	0.9167508928468084	2.6996485276185838	0.02658526451079777	0.8348290210119973	2.561579395898002	1.4676303983719514	0.7653773521364792	2.528400745175252	1.7164728385422172	0.713609632455026	2.42721413591441	1.6073874233907095	0.738725597498995	2.6098301753429767	1.3668237500777989	0.5936916262893943	2.6018914493453327	1.0762912814143157	0.5416712994339852	2.5753329147856006	0.8457315610335892	0.5409889469738086	2.557742856908476	1.342586102675844	0.9342832384930001	2.6187201009433037	1.065560695398438	0.9578595001437593	2.6033153907992435	0.8371442559188369	0.9615471208916158
295	9.833333333333334	2.605422158376448	0.8339503187484341	0.7508002676300535	2.606805847345586	0.8010915254856	0.6703889345200796	2.5799429928397997	0.4708518902196849	0.65477717346516	2.63405022806042	0.10731345533686105	0.6616144087343188	2.45432129005995	0.027180504320300683	0.6400564497871984	2.4975639241840186	0.022524924725851624	0.5866616903541461	2.7006890401056807	0.02196545100269128	0.6798068226560877	2.5984026446136537	0.7999743169098139	0.8337735191930423	2.60633862802413	0.43716714103894766	0.8426932631179624	2.647053304908389	0.09638303614578099	0.8413007331891647	2.481212764806944	0.00904724728615331	0.8665024631283513	2.515022402506875	0.020782150772030022	0.9162238678780634	2.701570740934869	0.026138249721441017	0.8369257038435634	2.5621087870841635	1.4672516603721089	0.7655529627347849	2.527061003192107	1.7173046219978285	0.7148477496996861	2.427951274452141	1.6066445879055768	0.7368938945581316	2.6094464022057595	1.366420313341431	0.5928214449471908	2.602103171885641	1.0758933311912802	0.5418486033259591	2.5751418238596475	0.8458706935354761	0.5408614340600011	2.56026715799683	1.3429113133004045	0.9319691606372549	2.6186049811292658	1.0657616452401286	0.9577763522113154	2.60339542995851	0.837060557398779	0.9616417657387992
296	9.866666666666667	2.605476774923547	0.8342409286653709	0.7506657874015554	2.606333111399672	0.8028227937361786	0.6692618012309741	2.5816979875625425	0.4701681918407954	0.6570098013324669	2.6342566521431396	0.10699807021018999	0.6617554062926578	2.4548227337161688	0.02721523981093945	0.6400169587652917	2.4981280740530023	0.022393938980887897	0.586530490612757	2.701071994685273	0.02241570244871698	0.6806248509200554	2.5978194202073586	0.8015569725845638	0.8330111377753308	2.6055399623217324	0.4390768465916247	0.8392483750457345	2.6472855640306956	0.09652393217689768	0.8424299155589136	2.481480206102289	0.006857886399344947	0.8642472849652568	2.5124333917485164	0.02178081859268387	0.9154500114285593	2.702040838199561	0.026108875139601022	0.8379278716985477	2.5625789497215985	1.4669597295684111	0.7657547052104163	2.5260800715117138	1.7166829469076932	0.7204164517585301	2.428919488976987	1.6059666950176976	0.7362114387459204	2.6090314684408793	1.366193453360392	0.5920400961343715	2.602366573115566	1.0755176960113968	0.5419265362518884	2.5749982057567076	0.8458392585020478	0.5407544745902013	2.5643819194081545	1.343279847854887	0.9280003575627226	2.618509142504215	1.0660054055195867	0.9577976252921363	2.603562136678367	0.8367743202049662	0.9617491705782639
297	9.9	2.6055397229570723	0.8343723972467915	0.7505578766420101	2.6061368613674745	0.8038792812154311	0.6682213977505795	2.5840597293306256	0.46913470200463303	0.6600361499726551	2.634257008856789	0.1066230222175224	0.6618559387157313	2.455344135821131	0.027237591239879698	0.6398594355220506	2.4986183696339586	0.022308378189350164	0.5862848579224048	2.7014166833266713	0.022729008591185658	0.6811203019381482	2.5973772103057775	0.8023792804695404	0.832186934178374	2.6048101693590007	0.44061912371540335	0.8362365778533655	2.646126549097862	0.09744308208590322	0.8417096203680241	2.4815303254398415	0.004887287944108468	0.8619673164932566	2.5107656537467755	0.02238589485953365	0.9147341317400961	2.7009029631613313	0.026548068580629802	0.8374631545514377	2.562953234095955	1.466799903383258	0.7659530811309335	2.5256819313035126	1.714928878726193	0.7284854398459342	2.4299344291127265	1.605455476963422	0.7366968788860926	2.608659356064744	1.3661545624590254	0.5915288220452878	2.6025852615104568	1.075235947559146	0.5419138455276326	2.574913272946301	0.8457295007093023	0.5406357778004661	2.569981024186279	1.3436838480979443	0.9225593509925909	2.6185239833220497	1.0662616393304227	0.9579355566033491	2.6037961788578823	0.8363656156206305	0.9618559911347744
